<svg xmlns="http://www.w3.org/2000/svg" version="1.1" xmlns:xlink="http://www.w3.org/1999/xlink" xmlns:svgjs="http://svgjs.dev/svgjs" viewBox="0 0 800 400"><path d="M7.174887657165527,245.7399139404297C9.41704003016154,249.32735951741537,16.591927369435627,260.68760935465497,20.6278018951416,267.26458740234375C24.663676420847576,273.84156545003253,27.503736813863117,280.4185282389323,31.390134811401367,285.2017822265625C35.27653280893961,289.9850362141927,38.415547370910645,293.8714345296224,43.946189880371094,295.964111328125C49.47683238983154,298.0567881266276,56.801194508870445,298.3557484944661,64.57398986816406,297.7578430175781C72.34678522745769,297.1599375406901,84.0059814453125,296.26307678222656,90.58296203613281,292.3766784667969C97.15994262695312,288.4902801513672,98.05680084228516,283.70701599121094,104.03587341308594,274.439453125C110.01494598388672,265.17189025878906,121.52466074625652,247.53363291422525,126.4573974609375,236.77130126953125C131.3901341756185,226.00896962483725,130.49328104654947,219.58145650227866,133.63229370117188,209.86546325683594C136.77130635579428,200.14947001139322,141.85350799560547,187.74290466308594,145.29147338867188,178.475341796875C148.72943878173828,169.20777893066406,151.5695012410482,161.2854970296224,154.2600860595703,154.2600860595703C156.95067087809244,147.23467508951822,157.249631245931,140.65770467122397,161.4349822998047,136.3228759765625C165.62033335367838,131.98804728190103,173.8415501912435,128.5500691731771,179.3721923828125,128.25111389160156C184.9028345743815,127.95215861002605,190.73243713378906,131.988037109375,194.61883544921875,134.52914428710938C198.50523376464844,137.07025146484375,199.10313924153647,138.5650202433268,202.69058227539062,143.4977569580078C206.27802530924478,148.4304936726888,212.25709533691406,157.10015360514322,216.14349365234375,164.1255645751953C220.02989196777344,171.1509755452474,222.2720514933268,178.32585906982422,226.00897216796875,185.6502227783203C229.7458928426107,192.9745864868164,234.37966664632162,201.79371897379556,238.5650177001953,208.07174682617188C242.750368754069,214.3497746785482,246.3378168741862,219.13303883870444,251.12107849121094,223.31838989257812C255.9043401082357,227.5037409464518,261.4349899291992,231.689084370931,267.26458740234375,233.18385314941406C273.0941848754883,234.67862192789713,280.7174987792969,236.0239232381185,286.0986633300781,232.28700256347656C291.4798278808594,228.55008188883463,295.2167460123698,217.63826497395834,299.55157470703125,210.7623291015625C303.8864034016927,203.88639322916666,307.1749013264974,194.0209223429362,312.1076354980469,191.03138732910156C317.0403696695964,188.04185231526694,324.0657704671224,190.88191986083984,329.1479797363281,192.8251190185547C334.2301890055339,194.76831817626953,338.71449279785156,198.50523122151694,342.60089111328125,202.69058227539062C346.48728942871094,206.8759333292643,348.7294464111328,212.10762786865234,352.46636962890625,217.93722534179688C356.2032928466797,223.7668228149414,359.7907409667969,231.0911865234375,365.0224304199219,237.6681671142578C370.2541198730469,244.24514770507812,378.32586669921875,252.16742197672525,383.85650634765625,257.39910888671875C389.38714599609375,262.6307957967122,392.2271982828776,268.75933837890625,398.2062683105469,269.05828857421875C404.1853383382161,269.35723876953125,413.9013264973958,265.47083536783856,419.7309265136719,259.19281005859375C425.56052652994794,252.91478474934897,429.59642028808594,240.8071746826172,433.1838684082031,231.39013671875C436.7713165283203,221.9730987548828,438.4155578613281,212.40657552083334,441.255615234375,202.69058227539062C444.0956726074219,192.9745890299479,447.3841552734375,182.51121775309244,450.2242126464844,173.09417724609375C453.06427001953125,163.67713673909506,455.3064219156901,155.45590337117514,458.29595947265625,146.18833923339844C461.2854970296224,136.92077509562174,464.7234700520833,126.008970896403,468.16143798828125,117.4887924194336C471.5994059244792,108.96861394246419,474.43946329752606,101.49477259318034,478.92376708984375,95.06726837158203C483.40807088216144,88.63976414998372,489.8355712890625,83.40807215372722,495.0672607421875,78.92376708984375C500.2989501953125,74.43946202596028,504.63377888997394,69.20777638753255,510.31390380859375,68.16143798828125C515.9940287272135,67.11509958902995,523.4678955078125,68.90881601969402,529.1480102539062,72.64573669433594C534.828125,76.38265736897786,540.5081990559896,85.79970296223958,544.3945922851562,90.58296203613281C548.2809855143229,95.36622111002605,549.4768269856771,96.26307932535808,552.4663696289062,101.34529113769531C555.4559122721354,106.42750295003255,559.3423156738281,114.6487299601237,562.3318481445312,121.07623291015625C565.3213806152344,127.5037358601888,567.5635070800781,134.0807113647461,570.403564453125,139.91030883789062C573.2436218261719,145.73990631103516,576.6816101074219,151.27055867513022,579.3721923828125,156.05381774902344C582.0627746582031,160.83707682291666,582.660654703776,166.9656194051107,586.5470581054688,168.60986328125C590.4334615071615,170.2541071573893,597.6083984375,166.66666412353516,602.6906127929688,165.91928100585938C607.7728271484375,165.1718978881836,613.6023864746094,166.51719411214194,617.0403442382812,164.1255645751953C620.4783020019531,161.7339350382487,619.8803914388021,155.30642445882162,623.318359375,151.5695037841797C626.7563273111979,147.83258310953775,632.5859375,146.03886795043945,637.6681518554688,141.70404052734375C642.7503662109375,137.36921310424805,648.4304809570312,128.10164642333984,653.8116455078125,125.56053924560547C659.1928100585938,123.0194320678711,663.8265889485677,124.36472193400066,669.9551391601562,126.4573974609375C676.0836893717448,128.55007298787436,685.2017822265625,133.33333333333334,690.5829467773438,138.11659240722656C695.964111328125,142.89985148111978,697.6083475748698,148.57997131347656,702.2421264648438,155.15695190429688C706.8759053548177,161.7339324951172,709.8654378255209,168.6098658243815,718.3856201171875,177.57847595214844C726.9058024088541,186.54708607991537,744.5440775553385,200.44843292236328,753.3632202148438,208.96861267089844C762.182362874349,217.4887924194336,765.7698364257812,222.4215291341146,771.3004760742188,228.69955444335938C776.8311157226562,234.97757975260416,784.0059611002604,243.64722951253256,786.5470581054688,246.6367645263672" fill="none" stroke-width="6" stroke="url(&quot;#SvgjsLinearGradient1003&quot;)" stroke-linecap="round" stroke-opacity="1"></path><defs><linearGradient id="SvgjsLinearGradient1003"><stop stop-color="hsl(105, 69%, 40%)" offset="0"></stop><stop stop-color="hsl(105, 69%, 60%)" offset="1"></stop></linearGradient></defs></svg>